<svg width="17" height="11" viewBox="0 0 17 11" fill="none" xmlns="http://www.w3.org/2000/svg">
<path fill-rule="evenodd" clip-rule="evenodd" d="M8.34248 10.4535H9.34928C9.34928 10.4535 9.6534 10.4202 9.80867 10.2528C9.95158 10.0991 9.94701 9.81054 9.94701 9.81054C9.94701 9.81054 9.92734 8.4596 10.5543 8.26066C11.1724 8.0647 11.9661 9.56633 12.8074 10.1437C13.4435 10.5807 13.9269 10.4849 13.9269 10.4849L16.1763 10.4535C16.1763 10.4535 17.353 10.3811 16.795 9.45589C16.7493 9.3802 16.4701 8.7715 15.1226 7.52071C13.7122 6.21161 13.9011 6.42335 15.6 4.1589C16.6347 2.77983 17.0484 1.93789 16.9192 1.57728C16.7959 1.23383 16.035 1.32461 16.035 1.32461L13.5023 1.34039C13.5023 1.34039 13.3145 1.31478 13.1753 1.39801C13.0392 1.47964 12.9516 1.66989 12.9516 1.66989C12.9516 1.66989 12.5508 2.73707 12.0162 3.64463C10.8884 5.55969 10.4375 5.66076 10.2532 5.54185C9.82444 5.26471 9.93146 4.42849 9.93146 3.83442C9.93146 1.97859 10.2129 1.20479 9.38335 1.00448C9.10804 0.937942 8.90545 0.894038 8.20139 0.88695C7.29771 0.877574 6.53283 0.889693 6.09974 1.10189C5.81163 1.24298 5.58937 1.55739 5.72474 1.57546C5.89212 1.59786 6.27124 1.67767 6.47224 1.95138C6.73177 2.30443 6.72262 3.09744 6.72262 3.09744C6.72262 3.09744 6.87171 5.28209 6.37437 5.55351C6.03297 5.73965 5.56467 5.35961 4.55924 3.62222C4.04406 2.73226 3.6551 1.74855 3.6551 1.74855C3.6551 1.74855 3.5801 1.56471 3.44633 1.46638C3.28398 1.34725 3.05715 1.30929 3.05715 1.30929L0.650462 1.32507C0.650462 1.32507 0.289174 1.33513 0.156549 1.49222C0.0385584 1.63194 0.147173 1.92097 0.147173 1.92097C0.147173 1.92097 2.03136 6.32914 4.16479 8.55061C6.12101 10.5873 8.34248 10.4535 8.34248 10.4535Z" fill="black"/>
</svg>
